<svg width="37" height="37" viewBox="0 0 37 37" fill="none" xmlns="http://www.w3.org/2000/svg">
<path d="M17.9298 23.4059L17.902 23.379C19.5046 23.559 21.1037 23.0145 22.2582 21.8958C23.4126 20.7771 24.0003 19.2024 23.859 17.6063L23.8868 17.6331C23.7501 15.7565 24.4531 13.9156 25.8082 12.6014C27.1633 11.2872 29.0328 10.6334 30.9179 10.8144L30.8901 10.7876C33.1725 11.0283 35.3615 9.82125 36.3629 7.76971C37.3643 5.71817 36.963 3.26286 35.3596 1.63109C33.7563 -0.000684684 31.2952 -0.458414 29.2066 0.4867C27.118 1.43181 25.8505 3.57676 26.0377 5.84937L26.0114 5.82111C26.1487 7.69786 25.4459 9.5391 24.0906 10.8534C22.7354 12.1677 20.8656 12.8213 18.9803 12.6398L19.0066 12.6681C17.404 12.4881 15.8049 13.0326 14.6504 14.1513C13.496 15.27 12.9083 16.8447 13.0496 18.4408L13.0233 18.414C13.1594 20.2905 12.4563 22.1311 11.1013 23.4451C9.7463 24.7592 7.87717 25.4132 5.99216 25.2327L6.01849 25.2595C3.73609 25.0188 1.54709 26.2259 0.545676 28.2774C-0.455733 30.3289 -0.0544481 32.7842 1.54894 34.416C3.15234 36.0478 5.61343 36.5055 7.70202 35.5604C9.79061 34.6153 11.0581 32.4703 10.8709 30.1977L10.8987 30.2245C10.762 28.3479 11.4649 26.507 12.8201 25.1928C14.1752 23.8786 16.0446 23.2249 17.9298 23.4059V23.4059Z" fill="#FF7143"/>
</svg>
