<svg width="201" height="40" viewBox="0 0 201 40" fill="none" xmlns="http://www.w3.org/2000/svg">
<path d="M30.159 17.328C29.0096 18.4495 28.4231 20.0215 28.5588 21.6164L28.5325 21.5896C28.6692 23.4662 27.9662 25.3071 26.6111 26.6213C25.256 27.9355 23.3865 28.5893 21.5014 28.4083L21.5277 28.4351C19.2455 28.1963 17.0578 29.4047 16.0579 31.4566C15.058 33.5084 15.4605 35.9631 17.0644 37.5938C18.6683 39.2246 21.1291 39.6814 23.2171 38.7359C25.3051 37.7904 26.5719 35.6456 26.3846 33.3734L26.4124 33.4002C26.2757 31.5236 26.9786 29.6827 28.3337 28.3685C29.6889 27.0543 31.5583 26.4005 33.4435 26.5815L33.4156 26.5547C35.924 26.8093 38.2789 25.3164 39.1029 22.9492C39.9268 20.582 39.0035 17.9624 36.8729 16.6227C34.7423 15.2829 31.9641 15.575 30.1634 17.3281L30.159 17.328Z" fill="#5454D4"/>
<path d="M19.1465 24.9384L19.1187 24.9116C20.7213 25.0916 22.3205 24.5471 23.4749 23.4284C24.6293 22.3097 25.217 20.735 25.0757 19.1389L25.1036 19.1657C24.9669 17.2891 25.6698 15.4482 27.0249 14.134C28.3801 12.8198 30.2495 12.166 32.1346 12.347L32.1068 12.3202C34.3892 12.5609 36.5782 11.3538 37.5797 9.3023C38.5811 7.25076 38.1798 4.79545 36.5764 3.16368C34.973 1.53191 32.5119 1.07418 30.4233 2.01929C28.3347 2.96441 27.0673 5.10935 27.2545 7.38196L27.2282 7.3537C27.3654 9.23045 26.6626 11.0717 25.3073 12.386C23.9521 13.7003 22.0823 14.3539 20.1971 14.1724L20.2234 14.2006C18.6207 14.0207 17.0216 14.5652 15.8672 15.6839C14.7127 16.8026 14.1251 18.3773 14.2663 19.9734L14.24 19.9466C14.3762 21.8231 13.673 23.6637 12.318 24.9777C10.963 26.2918 9.0939 26.9458 7.2089 26.7653L7.23522 26.7921C4.95282 26.5513 2.76382 27.7584 1.76241 29.81C0.761003 31.8615 1.16229 34.3168 2.76568 35.9486C4.36907 37.5804 6.83016 38.0381 8.91876 37.093C11.0073 36.1479 12.2748 34.0029 12.0876 31.7303L12.1154 31.7571C11.9787 29.8805 12.6817 28.0396 14.0368 26.7254C15.3919 25.4112 17.2614 24.7574 19.1465 24.9384V24.9384Z" fill="#FF7143"/>
<path d="M9.28171 22.0016C10.4177 20.8665 10.9848 19.2873 10.8286 17.6942L10.8567 17.7207C10.6973 15.8453 11.3784 13.9955 12.7183 12.665C14.0581 11.3344 15.9204 10.6586 17.8081 10.8178L17.78 10.7913C20.0643 11.0039 22.2375 9.7706 23.2135 7.7078C24.1896 5.64499 23.7587 3.19566 22.1364 1.58393C20.5141 -0.0277992 18.0486 -0.455804 15.9722 0.513824C13.8958 1.48345 12.6544 3.64248 12.8684 5.91187L12.8418 5.8854C13.0011 7.76024 12.3203 9.60949 10.9812 10.9399C9.64198 12.2703 7.78054 12.9466 5.89336 12.7883L5.92001 12.8148C3.40888 12.5911 1.07266 14.1127 0.277732 16.4896C-0.517197 18.8666 0.437973 21.4746 2.58459 22.7882C4.73121 24.1019 7.50542 23.7762 9.28467 22.0016H9.28171Z" fill="#5454D4"/>
<path d="M55.1361 7.33398H59.5325V28.5884H55.1361V7.33398Z" fill="#19191B"/>
<path fill-rule="evenodd" clip-rule="evenodd" d="M66.7954 14.1596C63.8941 15.3636 62.0098 18.1867 62.0223 21.3104C62.0071 23.3586 62.8215 25.3269 64.2823 26.7724C65.7432 28.2178 67.7277 29.019 69.7893 28.9957C72.9336 28.9957 75.7677 27.1123 76.968 24.2252C78.1683 21.3381 77.4981 18.0168 75.2703 15.8124C73.0425 13.6081 69.6967 12.9555 66.7954 14.1596ZM69.7269 18.0536C71.5768 18.0196 73.1087 19.4729 73.1599 21.3103C73.2098 22.2212 72.874 23.1114 72.2338 23.7653C71.5936 24.4192 70.7072 24.7773 69.7893 24.753C67.9391 24.7531 66.4343 23.2721 66.4172 21.434C66.4001 19.596 67.877 18.0875 69.7269 18.0536Z" fill="#19191B"/>
<path fill-rule="evenodd" clip-rule="evenodd" d="M95.0783 27.8545V14.031L90.7988 14.0281V15.5133C89.7549 14.2443 88.1672 13.5421 86.5194 13.6207C82.4997 13.7466 79.3069 17.0203 79.3069 21.0156C79.3069 25.0109 82.4997 28.2845 86.5194 28.4104C88.1672 28.489 89.7549 27.7868 90.7988 26.5178V27.8486C90.8724 28.7267 90.5403 29.5905 89.8963 30.1963C89.2522 30.8021 88.366 31.0843 87.4875 30.9633C86.0978 31.1043 84.7661 30.3733 84.1465 29.1295L80.3955 31.2839C81.863 33.6593 84.5432 35.0214 87.3409 34.8133C91.2385 34.8133 95.0783 32.7457 95.0783 27.8545ZM88.7112 17.6533C90.0338 18.2458 90.8608 19.5777 90.8003 21.0177C90.8277 21.9476 90.458 22.8456 89.7826 23.4899C89.1073 24.1342 88.1892 24.4649 87.2551 24.4001C85.8043 24.4018 84.4982 23.527 83.9557 22.1903C83.4133 20.8535 83.7436 19.3234 84.79 18.325C85.8364 17.3267 87.3887 17.0608 88.7112 17.6533Z" fill="#19191B"/>
<path fill-rule="evenodd" clip-rule="evenodd" d="M102.341 14.1596C99.4399 15.3636 97.5555 18.1867 97.5681 21.3104C97.5529 23.3586 98.3673 25.3269 99.8281 26.7724C101.289 28.2178 103.273 29.019 105.335 28.9957C108.479 28.9957 111.313 27.1123 112.514 24.2252C113.714 21.3381 113.044 18.0168 110.816 15.8124C108.588 13.6081 105.243 12.9555 102.341 14.1596ZM105.273 18.0536C107.123 18.0196 108.654 19.4729 108.706 21.3103C108.756 22.2212 108.42 23.1114 107.78 23.7653C107.139 24.4192 106.253 24.7773 105.335 24.753C103.485 24.7531 101.98 23.2721 101.963 21.434C101.946 19.596 103.423 18.0875 105.273 18.0536Z" fill="#19191B"/>
<path fill-rule="evenodd" clip-rule="evenodd" d="M116.781 7.70847C115.795 8.11409 115.152 9.06965 115.152 10.1296C115.167 11.5709 116.339 12.7358 117.79 12.7502C118.857 12.7502 119.819 12.1117 120.227 11.1324C120.635 10.1532 120.41 9.02602 119.655 8.27654C118.901 7.52706 117.766 7.30285 116.781 7.70847ZM119.994 14.031H115.596L115.59 28.5898H119.994V14.031Z" fill="#19191B"/>
<path fill-rule="evenodd" clip-rule="evenodd" d="M137.084 26.6C138.398 25.1575 139.08 23.2537 138.977 21.3104C139.081 19.3667 138.399 17.4623 137.085 16.0193C135.77 14.5764 133.93 13.7141 131.973 13.6236C130.323 13.5342 128.72 14.1859 127.607 15.3986V14.031H123.211V34.4118H127.607V27.2192C128.72 28.4328 130.323 29.0851 131.973 28.9957C133.929 28.9048 135.769 28.0426 137.084 26.6ZM131.036 17.9329C132.951 17.901 134.533 19.4087 134.581 21.3103C134.647 22.2554 134.304 23.1836 133.639 23.8619C132.973 24.5401 132.047 24.9039 131.095 24.8618C129.18 24.862 127.623 23.3285 127.607 21.4263C127.591 19.5241 129.122 17.9647 131.036 17.9329Z" fill="#19191B"/>
<path d="M152.544 24.2207C152.544 27.5693 149.614 28.9957 146.45 28.9957C143.833 29.2312 141.337 27.8585 140.148 25.531L143.957 23.3766C144.274 24.4602 145.311 25.176 146.444 25.0943C147.498 25.0943 148.026 24.7737 148.026 24.1928C148.026 22.5899 140.816 23.4354 140.816 18.3987C140.816 15.2237 143.513 13.6237 146.561 13.6237C148.894 13.5503 151.083 14.7436 152.275 16.7384L148.524 18.7472C148.187 17.9676 147.414 17.4633 146.561 17.4663C145.798 17.4663 145.329 17.7604 145.329 18.281C145.335 19.9413 152.544 18.834 152.544 24.2207Z" fill="#19191B"/>
<path d="M168.603 14.031V28.5898H164.207V27.2207C163.178 28.4462 161.62 29.1069 160.018 28.9972C157.057 28.9972 154.541 26.9016 154.541 22.9678V14.031H158.937V22.3281C158.863 23.0299 159.103 23.7287 159.594 24.2386C160.085 24.7485 160.777 25.0179 161.486 24.9751C163.098 24.9751 164.211 24.0442 164.211 21.9766V14.0354L168.603 14.031Z" fill="#19191B"/>
<path d="M193.812 19.6501V28.5883H189.416V20.0281C189.416 18.5722 188.713 17.6413 187.307 17.6413C185.841 17.6413 185.02 18.6604 185.02 20.3781V28.5883H180.625V20.0281C180.625 18.5722 179.922 17.6413 178.514 17.6413C177.048 17.6413 176.228 18.6604 176.228 20.3781V28.5883H171.832V14.0295H176.228V15.3678C177.154 14.1614 178.633 13.5041 180.155 13.6222C181.686 13.5478 183.143 14.277 183.994 15.5428C184.984 14.2195 186.589 13.4942 188.244 13.6222C191.608 13.6236 193.812 16.0104 193.812 19.6501Z" fill="#19191B"/>
<path d="M197.531 13.9413C199.333 13.9413 200.793 12.4902 200.793 10.7002C200.793 8.91011 199.333 7.45898 197.531 7.45898C195.729 7.45898 194.268 8.91011 194.268 10.7002C194.268 12.4902 195.729 13.9413 197.531 13.9413Z" fill="#19191B"/>
</svg>
